<svg width="327" height="352" viewBox="0 0 327 352" fill="#C09B57" xmlns="http://www.w3.org/2000/svg">
<path fill-rule="evenodd" clip-rule="evenodd" d="M327 0H0V352H327L291.017 171.833L327 0Z" fill="white"/>
<path d="M53.15 226V211.175H58.45V209.325H45.8V211.175H51.075V226H53.15ZM68.1242 226.3C73.0492 226.3 76.4242 222.6 76.4242 217.675C76.4242 212.75 73.0492 209.05 68.1242 209.05C63.1992 209.05 59.8492 212.75 59.8492 217.675C59.8492 222.6 63.1992 226.3 68.1242 226.3ZM68.1242 224.45C64.3742 224.45 61.9992 221.55 61.9992 217.675C61.9992 213.775 64.3742 210.9 68.1242 210.9C71.8492 210.9 74.2742 213.775 74.2742 217.675C74.2742 221.55 71.8492 224.45 68.1242 224.45ZM86.4404 226.3C90.9654 226.3 93.2654 223.65 93.2654 219.5V209.325H91.1654V219.475C91.1654 222.525 89.5154 224.45 86.4404 224.45C83.3654 224.45 81.7404 222.525 81.7404 219.475V209.325H79.6404V219.525C79.6404 223.625 81.9404 226.3 86.4404 226.3ZM105.07 226.3C108.02 226.3 110.02 224.9 111.42 222.975L109.67 222.025C108.72 223.425 106.97 224.45 105.07 224.45C101.42 224.45 98.6447 221.625 98.6447 217.675C98.6447 213.675 101.42 210.9 105.07 210.9C106.97 210.9 108.72 211.9 109.67 213.325L111.395 212.35C110.07 210.45 108.02 209.05 105.07 209.05C100.27 209.05 96.4947 212.55 96.4947 217.675C96.4947 222.8 100.27 226.3 105.07 226.3ZM127.964 226V209.325H125.889V216.5H116.139V209.325H114.064V226H116.139V218.35H125.889V226H127.964ZM144.532 226V211.175H149.832V209.325H137.182V211.175H142.457V226H144.532ZM159.506 226.3C164.431 226.3 167.806 222.6 167.806 217.675C167.806 212.75 164.431 209.05 159.506 209.05C154.581 209.05 151.231 212.75 151.231 217.675C151.231 222.6 154.581 226.3 159.506 226.3ZM159.506 224.45C155.756 224.45 153.381 221.55 153.381 217.675C153.381 213.775 155.756 210.9 159.506 210.9C163.231 210.9 165.656 213.775 165.656 217.675C165.656 221.55 163.231 224.45 159.506 224.45ZM185.092 226.3C190.017 226.3 193.392 222.6 193.392 217.675C193.392 212.75 190.017 209.05 185.092 209.05C180.167 209.05 176.817 212.75 176.817 217.675C176.817 222.6 180.167 226.3 185.092 226.3ZM185.092 224.45C181.342 224.45 178.967 221.55 178.967 217.675C178.967 213.775 181.342 210.9 185.092 210.9C188.817 210.9 191.242 213.775 191.242 217.675C191.242 221.55 188.817 224.45 185.092 224.45ZM198.683 226V219.375H203.308C206.633 219.375 208.533 217.075 208.533 214.35C208.533 211.625 206.658 209.325 203.308 209.325H196.608V226H198.683ZM203.058 217.525H198.683V211.175H203.058C205.033 211.175 206.383 212.475 206.383 214.35C206.383 216.225 205.033 217.525 203.058 217.525ZM222.206 226V224.15H213.356V218.4H222.031V216.55H213.356V211.175H222.206V209.325H211.281V226H222.206ZM239.314 226V209.325H237.239V222.35L227.639 209.325H225.514V226H227.589V212.7L237.314 226H239.314ZM92.417 246.993L92.2583 246.961L77.3096 284H73.1519L58.2031 246.993L58.0444 247.025L58.6792 265.719V279.112L63.8525 280.001V284H47.2534V280.001L52.4268 279.112V242.708L47.2534 241.82V237.789H52.4268H60.4248L75.1514 275.335H75.3418L90.0366 237.789H103.24V241.82L98.0664 242.708V279.112L103.24 280.001V284H86.6406V280.001L91.814 279.112V265.719L92.417 246.993ZM107.747 284V280.001L112.92 279.112V242.708L107.747 241.82V237.789H143.23V248.897H137.866L137.358 242.708H119.172V257.657H136.851V262.577H119.172V279.112H137.739L138.247 272.923H143.579V284H107.747ZM194.456 237.789V241.82L189.282 242.708V284H183.03L160.813 248.326L160.623 248.39V279.112L165.796 280.001V284H149.197V280.001L154.37 279.112V242.708L149.197 241.82V237.789H154.37H160.623L182.839 273.431L183.03 273.368V242.708L177.856 241.82V237.789H189.282H194.456ZM214.958 237.789V241.82L209.785 242.708V269.115C209.785 272.606 210.78 275.261 212.769 277.081C214.757 278.88 217.381 279.779 220.64 279.779C224.067 279.779 226.829 278.88 228.923 277.081C231.018 275.283 232.065 272.627 232.065 269.115V242.708L226.892 241.82V237.789H238.318H243.491V241.82L238.318 242.708V269.115C238.318 274.129 236.678 277.98 233.398 280.667C230.14 283.333 225.887 284.667 220.64 284.667C215.54 284.667 211.414 283.333 208.262 280.667C205.109 277.98 203.533 274.129 203.533 269.115V242.708L198.359 241.82V237.789H203.533H214.958Z" fill="#D9782D"/>
<line x1="78" y1="175.5" x2="207" y2="175.5" stroke="#59595B"/>
<path d="M207.983 80.4344C209.686 75.2332 211.289 70.3187 208.549 65.3422C208.14 64.6607 207.69 64.0041 207.204 63.376C206.951 63.0294 206.674 62.6378 206.372 62.2121C203.5 58.147 198.691 51.3305 192.748 52.0023C191.516 52.1413 190.573 52.244 189.668 52.3424C188.057 52.5179 186.537 52.6826 183.708 53.0207C179.127 53.562 176.754 53.0485 173.161 52.2697C172.175 52.0558 171.058 51.8118 169.798 51.5744C167.49 51.1465 163.895 51.9766 159.732 52.9501C157.041 53.577 154.259 54.2338 151.449 54.6296C148.639 55.0254 145.676 55.2843 143.088 55.5004C139.469 55.8021 136.336 56.0652 134.616 56.6643C126.706 59.42 122.242 64.0991 117.074 69.5207C113.138 73.6457 108.679 78.3248 102.01 82.5718C100.626 83.4241 99.191 84.1887 97.7124 84.8611C95.158 86.0806 93.1359 87.0434 92.4462 89.1786C92.3391 89.5107 92.2538 89.8495 92.1908 90.1928C91.6565 90.1628 91.1435 90.1521 90.6709 90.1564C88.5785 87.8585 86.4584 87.2573 84.3681 88.3742C83.2485 88.9711 82.744 90.3639 82.1075 92.1269C81.5711 93.6245 80.9006 95.4645 79.6639 97.3259C78.3548 99.2793 78.5144 100.638 78.689 102.221C78.9047 103.649 78.8831 105.103 78.6251 106.524C77.5183 112.435 76.2837 114.846 75.9367 115.446L75.909 115.493C74.1657 118.467 73.1142 120.264 72.9971 122.831C72.9162 124.622 74.585 126.95 76.19 127.279C76.4953 127.346 76.8125 127.334 77.1117 127.243C77.3851 127.477 77.6914 127.668 78.0206 127.812C79.2744 128.353 83.3081 128.668 85.4303 126.796C85.8316 126.43 86.1478 125.98 86.3562 125.478C86.549 125.02 86.8264 124.602 87.1736 124.248C89.0532 122.382 91.8353 121.229 93.3296 120.61C93.5978 120.499 93.8192 120.407 93.9873 120.332C95.3752 119.705 96.9482 118.058 98.7703 116.149C101.031 113.777 103.845 110.833 107.2 108.973C109.967 107.448 112.823 107.153 115.356 107.392C117.317 109.202 117.038 112.461 116.725 116.109V116.194C116.491 118.918 116.374 120.287 116.15 121.543C115.648 124.361 114.961 128.223 112.715 131.86C111.25 134.233 109.498 135.904 108.091 137.245C106.985 138.302 106.101 139.143 105.822 139.941L105.735 140.583C105.743 140.662 105.758 140.741 105.78 140.818C105.993 141.586 106.71 142.202 107.804 142.555C109.696 143.167 112.74 142.983 114.65 141.432C115.501 140.737 116.087 140.148 116.58 139.293L116.991 138.49C117.457 137.421 117.889 135.974 118.481 133.721C119.365 130.388 120.054 128.462 122.387 123.625C123.585 121.176 124.634 118.657 125.529 116.081C126.038 114.652 126.38 113.68 127.04 112.677C128.756 114.095 129.957 115.013 132.628 114.624C135.261 114.243 143.571 109.949 144.742 108.086C144.814 107.99 144.864 107.88 144.888 107.764C144.913 107.647 144.912 107.526 144.884 107.409C144.735 106.928 144.118 106.564 143.052 106.34C139.742 105.619 131.802 106.252 127.57 111.023C127.328 111.297 127.115 111.558 126.932 111.81C125.862 110.908 124.723 110.092 123.526 109.369C121.086 107.981 118.392 107.103 115.605 106.789C114.936 106.258 114.162 105.876 113.334 105.67C112.436 105.426 111.406 104.953 111.593 104.102C112.129 101.665 121.651 97.3687 132.947 99.3328C133.986 99.5125 143.203 101.278 147.183 107.6C148.439 109.596 148.839 111.316 149.344 113.49C149.9 115.886 150.53 118.599 152.494 122.547C153.12 123.805 153.635 124.714 154.091 125.518C154.985 127.097 155.581 128.139 156.187 130.36C156.671 132.144 157.054 133.954 157.335 135.782L157.426 136.381C157.569 137.318 157.684 138.204 157.792 139.019C158.269 142.656 158.586 145.065 160.17 145.651C161.051 145.974 162.443 145.769 163.718 145.125C165.045 144.453 165.996 143.428 166.326 142.312C166.56 141.526 166.132 139.986 164.47 136.173L164.21 135.581C163.546 134.083 162.709 132.254 161.656 130.018L161.632 129.966C160.821 128.233 159.902 126.267 159.821 123.586C159.807 122.87 159.855 122.155 159.964 121.447C159.998 121.194 160.027 120.976 160.038 120.805C160.136 118.839 159.768 116.909 159.306 114.468C158.965 112.681 158.58 110.655 158.259 108.071C158.022 106.166 158.41 104.637 158.818 103.015C159.227 101.393 159.651 99.7286 159.48 97.5827C159.31 95.4367 158.746 94.0268 157.963 92.0969C157.039 89.883 156.253 87.6136 155.608 85.3018C155.6 85.262 155.583 85.2243 155.559 85.1913C155.535 85.1582 155.505 85.1303 155.47 85.1093C155.436 85.0884 155.397 85.0748 155.357 85.0695C155.316 85.0641 155.275 85.0671 155.236 85.0782C155.197 85.0893 155.161 85.1082 155.129 85.134C155.098 85.1597 155.072 85.1916 155.053 85.2278C155.034 85.264 155.023 85.3036 155.02 85.3443C155.017 85.385 155.023 85.4259 155.036 85.4644C155.684 87.7979 156.478 90.0881 157.411 92.3216C158.201 94.2728 158.723 95.5608 158.886 97.6319C159.05 99.7029 158.637 101.299 158.248 102.867C157.822 104.545 157.422 106.13 157.673 108.143C157.999 110.749 158.384 112.784 158.737 114.579C159.193 116.982 159.553 118.879 159.459 120.784C159.459 120.94 159.423 121.147 159.391 121.385C159.277 122.121 159.227 122.867 159.242 123.612C159.327 126.417 160.274 128.443 161.111 130.23L161.134 130.281C162.12 132.388 162.924 134.132 163.572 135.598L163.833 136.19C165.453 139.887 165.951 141.501 165.762 142.14C165.479 143.101 164.638 143.993 163.457 144.59C162.339 145.153 161.115 145.354 160.381 145.089C159.136 144.633 158.823 142.247 158.388 138.946C158.284 138.146 158.176 137.282 158.033 136.364L157.937 135.767C157.651 133.892 157.26 132.034 156.764 130.204C156.126 127.913 155.487 126.781 154.61 125.225C154.159 124.429 153.648 123.527 153.029 122.283C151.096 118.4 150.474 115.722 149.925 113.36C149.429 111.22 148.999 109.367 147.688 107.283C143.571 100.743 134.116 98.9391 133.052 98.7466C128.092 97.8786 123.003 98.1278 118.151 99.4761C114.167 100.621 111.365 102.388 111.016 103.969C110.884 104.564 110.993 105.649 113.183 106.246C113.598 106.357 114.001 106.51 114.386 106.703C111.791 106.6 109.217 107.204 106.936 108.451C103.504 110.349 100.654 113.336 98.3616 115.726C96.5821 117.589 95.0474 119.198 93.7659 119.776C93.602 119.851 93.3849 119.941 93.1274 120.048C91.5926 120.69 88.7403 121.866 86.7777 123.815C86.3827 124.218 86.0658 124.691 85.8432 125.21C85.6689 125.64 85.4021 126.025 85.062 126.338C83.1463 128.013 79.3957 127.737 78.2782 127.256C78.077 127.167 77.8857 127.058 77.7077 126.928C77.8537 126.802 77.9819 126.655 78.0887 126.494C78.706 125.619 78.8486 124.188 78.3974 123.43C78.251 123.186 78.0486 122.981 77.8071 122.833C77.5656 122.684 77.2921 122.595 77.0095 122.574C76.7764 122.566 76.545 122.617 76.3371 122.723C76.1292 122.829 75.9518 122.987 75.8218 123.182C75.5088 123.61 75.4471 124.252 75.6493 124.994C75.8349 125.634 76.1542 126.226 76.5859 126.732C76.4915 126.729 76.3975 126.718 76.3049 126.699C75.1087 126.451 73.5186 124.468 73.5931 122.857C73.7017 120.439 74.7255 118.691 76.422 115.796L76.4497 115.749C76.8137 115.131 78.0866 112.643 79.2169 106.635C79.5766 104.709 79.4297 103.349 79.2893 102.155C79.1083 100.567 78.9785 99.4205 80.1407 97.6618C81.4179 95.7363 82.1012 93.8513 82.6482 92.3344C83.2421 90.6913 83.7125 89.3947 84.6278 88.9112C86.9267 87.6852 88.8233 89.1251 89.8663 90.1949C89.1383 90.2441 88.5572 90.3489 88.2188 90.5244C87.1545 91.0657 86.6968 92.0434 86.6968 92.7709C86.6846 93.024 86.7443 93.2753 86.8691 93.4955C86.9939 93.7156 87.1785 93.8955 87.4014 94.0139C89.5023 95.0837 90.0089 97.5014 90.3453 99.1039C90.539 100.026 90.6667 100.634 91.0434 100.835C91.121 100.874 91.2064 100.896 91.2934 100.898C91.3804 100.9 91.4667 100.882 91.5458 100.845C92.0992 100.614 92.4207 99.6815 92.5952 98.9391C92.8577 97.7458 92.9295 96.518 92.8081 95.3019C93.3729 96.5714 94.2129 97.6978 95.2666 98.5989C97.1079 100.169 99.99 101.186 101.186 100.135C101.901 99.5061 102.338 97.8095 102.199 96.1877C102.038 94.2471 101.116 92.666 99.609 91.7375C98.4404 91.0186 95.4369 90.4538 92.7634 90.2398C92.8165 89.9462 92.8876 89.6561 92.9762 89.3712C93.5871 87.482 95.4092 86.6133 97.9316 85.4109C99.4318 84.7291 100.888 83.953 102.291 83.0874C109.022 78.8084 113.509 74.1014 117.468 69.9486C122.577 64.5848 127.002 59.9527 134.776 57.2441C136.423 56.6707 139.518 56.4118 143.101 56.1123C145.698 55.8983 148.635 55.648 151.498 55.2394C154.361 54.8307 157.128 54.1803 159.832 53.547C163.929 52.5906 167.469 51.7648 169.653 52.1777C170.926 52.4002 172.039 52.6377 173.025 52.8517C176.545 53.6155 179.087 54.1675 183.768 53.6133C186.605 53.2753 188.123 53.1105 189.728 52.9351C190.633 52.8367 191.576 52.734 192.81 52.5949C198.404 51.9659 203.089 58.5856 205.886 62.5565C206.188 62.9844 206.467 63.3802 206.723 63.729C207.194 64.3364 207.63 64.9707 208.028 65.6289C210.639 70.3786 209.145 74.9508 207.415 80.2461C207.355 80.4322 207.293 80.6205 207.231 80.8088C207.255 80.704 207.276 80.5949 207.3 80.4922C208.11 78.0133 208.658 75.4552 208.932 72.8605C208.94 72.784 208.917 72.7075 208.87 72.647C208.823 72.5864 208.755 72.5464 208.679 72.5353C208.603 72.5249 208.527 72.5437 208.464 72.5877C208.402 72.6318 208.359 72.6978 208.343 72.7728L208.019 74.3774C207.845 75.43 207.559 76.6667 207.257 77.9761C207.087 78.7142 206.906 79.4994 206.727 80.3295C206.301 81.701 205.841 82.9526 205.45 84.0502L205.431 84.1015C203.13 90.4559 201.437 95.6656 202.278 100.054C202.546 101.512 202.941 102.944 203.457 104.333C203.741 105.086 203.974 105.857 204.156 106.641C204.409 107.792 203.794 108.695 202.778 110.193C201.763 111.691 200.352 113.77 199.241 117.142C198.325 119.924 196.418 125.7 198.296 131.943C199.236 135.076 198.879 136.379 197.891 137.688C197.206 138.599 196.448 139.117 195.763 139.151C195.213 139.176 194.685 138.91 194.177 138.353L193.964 138.139C192.759 136.856 190.252 134.186 191.488 128.867C191.727 127.836 192.261 126.466 192.878 124.881C193.989 122.025 195.373 118.462 195.697 115.112C196.039 111.569 195.015 106.967 192.887 102.489C191.352 99.2536 189.068 95.8775 187.674 95.687C187.571 95.6726 187.467 95.6655 187.363 95.6657C186.32 95.6657 185.53 96.4166 184.475 97.4222C183.455 98.3807 182.178 99.5853 180.156 100.709C178.752 101.456 177.293 102.095 175.792 102.619C173.91 103.319 172.669 103.783 172.535 104.799C172.456 105.398 172.931 105.694 173.433 106.006C173.997 106.357 174.7 106.793 175.198 107.814C175.636 108.751 175.859 109.774 175.849 110.809C175.875 111.472 175.894 111.997 176.375 112.129C177.452 112.431 178.942 109.838 179.455 107.989C179.666 107.206 179.793 106.403 179.834 105.593C179.834 105.456 179.855 105.311 179.868 105.191C180.132 105.872 180.258 106.599 180.239 107.33C180.236 108.36 180.157 109.387 180.002 110.405C179.845 111.588 179.758 112.238 180.288 112.371C181.088 112.568 181.809 111.539 182.508 110.544C182.747 110.171 183.023 109.823 183.329 109.504C183.371 109.931 183.381 110.36 183.359 110.788C183.338 111.9 183.342 112.594 183.676 112.85C183.736 112.896 183.806 112.927 183.88 112.94C183.954 112.953 184.03 112.948 184.102 112.925C184.547 112.793 184.932 112.039 185.522 110.824C185.767 110.272 186.057 109.742 186.39 109.239C186.415 109.707 186.406 110.176 186.363 110.642C186.282 111.864 186.258 112.508 186.661 112.694C186.861 112.786 187.201 112.799 188.04 112.052C188.114 111.988 188.195 111.913 188.283 111.838C188.283 113 188.374 114.303 188.459 115.634C188.532 116.753 188.604 117.91 188.63 118.952C188.783 125.64 187.054 130.279 186.12 131.789C185.826 132.266 185.481 132.776 185.111 133.315C184.34 134.442 183.595 135.529 183.248 136.449L183.061 137.23C183.042 137.4 183.051 137.571 183.089 137.737C183.111 137.81 183.147 137.877 183.197 137.934C183.246 137.992 183.306 138.038 183.374 138.071C184.242 138.595 187.682 139.141 190.1 138.499C190.716 138.336 190.914 137.968 190.894 137.679C190.871 137.329 190.552 137.063 190.081 137.003C189.198 136.892 186.842 136.702 183.881 136.496C184.24 135.66 184.945 134.618 185.609 133.657C185.982 133.114 186.333 132.598 186.633 132.108C187.601 130.538 189.387 125.762 189.23 118.935C189.206 117.88 189.132 116.716 189.06 115.591C188.966 114.117 188.866 112.544 188.889 111.22C189.864 110.161 191.018 108.627 190.782 107.876C190.744 107.757 190.672 107.653 190.574 107.576C190.477 107.5 190.358 107.455 190.235 107.448C190.038 107.416 189.837 107.431 189.648 107.49C189.458 107.55 189.284 107.652 189.14 107.79C188.561 108.34 188.342 109.502 188.289 110.987C187.723 111.579 187.195 112.024 186.937 112.119C186.899 111.64 186.905 111.159 186.954 110.681C187.033 109.485 187.088 108.62 186.529 108.541C186.026 108.477 185.658 109.183 184.994 110.555C184.717 111.124 184.272 112.039 184.017 112.288C183.951 111.791 183.932 111.29 183.962 110.79C183.983 109.684 183.998 108.954 183.519 108.854C183.04 108.753 182.614 109.354 182.029 110.191C181.58 110.833 180.909 111.787 180.496 111.787C180.489 111.348 180.525 110.909 180.605 110.478C180.764 109.432 180.846 108.375 180.849 107.317C180.839 105.982 180.534 104.823 180.109 104.498C180.052 104.452 179.985 104.419 179.913 104.403C179.841 104.387 179.767 104.388 179.696 104.406C179.33 104.506 179.3 104.919 179.255 105.544C179.214 106.32 179.09 107.088 178.885 107.837C178.27 110.054 176.88 111.654 176.543 111.564C176.475 111.494 176.46 111.089 176.45 110.794C176.454 109.675 176.21 108.568 175.737 107.555C175.164 106.38 174.347 105.871 173.751 105.501C173.27 105.202 173.112 105.073 173.131 104.881C173.216 104.222 174.385 103.787 176.003 103.186C177.53 102.65 179.014 101.999 180.443 101.237C182.542 100.077 183.836 98.845 184.877 97.8544C185.954 96.8274 186.665 96.1428 187.589 96.2754C189.43 96.5279 195.89 106.881 195.098 115.056C194.781 118.332 193.415 121.845 192.316 124.665C191.69 126.274 191.15 127.66 190.901 128.73C189.592 134.363 192.348 137.299 193.525 138.552L193.738 138.766C194.377 139.457 195.062 139.791 195.792 139.757C196.908 139.701 197.81 138.803 198.372 138.056C199.479 136.588 199.888 135.153 198.872 131.777C197.05 125.717 198.915 120.058 199.813 117.337C200.899 114.044 202.274 112.018 203.277 110.537C204.307 109.018 205.052 107.921 204.743 106.517C204.558 105.709 204.318 104.914 204.026 104.138C203.519 102.775 203.132 101.37 202.87 99.9383C202.059 95.6999 203.721 90.5693 205.997 84.3026L206.012 84.2641C205.95 84.692 205.893 85.1199 205.844 85.5478C205.06 88.7165 204.622 92.1504 205.254 95.8903C205.501 97.3484 205.851 98.7869 206.301 100.195L206.327 100.278C206.137 103.916 205.475 107.919 204.926 111.162C204.251 115.21 203.945 117.183 204.366 117.769C204.405 117.826 204.454 117.874 204.512 117.911C204.569 117.947 204.633 117.972 204.701 117.983C204.79 117.992 204.88 117.981 204.964 117.951C205.048 117.92 205.125 117.871 205.188 117.808C206.15 116.982 207.908 112.266 207.898 107.046C207.898 103.505 207.449 101.932 206.927 100.199C207.027 98.1432 206.974 96.2048 206.661 94.5831C206.121 91.644 206.039 88.6384 206.418 85.6741C206.855 83.8747 207.421 82.1481 207.983 80.4344ZM128.009 111.417C132.028 106.885 139.827 106.246 142.92 106.924C143.854 107.138 144.252 107.414 144.308 107.591C144.34 107.855 143.224 109.046 139.58 111.051C136.721 112.624 133.833 113.852 132.536 114.046C130.101 114.399 129.046 113.58 127.379 112.2C127.564 111.939 127.773 111.689 128.009 111.417ZM123.196 109.876C124.382 110.593 125.51 111.401 126.57 112.294C125.857 113.364 125.506 114.376 124.963 115.88C124.074 118.437 123.032 120.937 121.844 123.368C119.49 128.248 118.794 130.195 117.898 133.569C117.236 136.064 116.795 137.536 116.287 138.572L115.906 139.25C115.458 139.908 114.905 140.486 114.269 140.961C112.585 142.327 109.75 142.551 107.979 141.982C107.083 141.693 106.504 141.22 106.346 140.653C106.333 140.6 106.325 140.546 106.32 140.491L106.516 139.834C106.853 139.243 107.581 138.54 108.496 137.675C109.926 136.31 111.71 134.609 113.215 132.17C115.52 128.437 116.221 124.511 116.732 121.644C116.959 120.36 117.076 118.986 117.313 116.244V116.158C117.602 112.79 117.879 109.56 116.278 107.504C118.706 107.877 121.048 108.68 123.196 109.876ZM76.2262 124.827C76.0751 124.28 76.1049 123.805 76.3071 123.524C76.3756 123.416 76.4697 123.326 76.5811 123.263C76.6926 123.2 76.8178 123.165 76.9457 123.163H76.9818C77.1663 123.181 77.3439 123.243 77.5006 123.342C77.6572 123.442 77.7886 123.577 77.8844 123.736C78.1781 124.228 78.1164 125.414 77.6013 126.145C77.498 126.297 77.3673 126.429 77.216 126.533C76.7522 126.054 76.4124 125.469 76.2262 124.827ZM92.0928 90.7619C92.0393 91.2528 92.0293 91.7476 92.063 92.2403C91.8268 91.6965 91.5213 91.1858 91.1541 90.7212C91.4543 90.7319 91.7693 90.7426 92.0928 90.7619ZM92.0183 98.7872C91.7799 99.812 91.4713 100.201 91.3138 100.285C91.1797 100.157 91.0371 99.474 90.9328 98.9712C90.573 97.2596 90.0302 94.6686 87.6739 93.4705C87.5518 93.3993 87.4519 93.2953 87.3854 93.1702C87.3189 93.0451 87.2883 92.9039 87.2971 92.7623C87.2971 92.2167 87.6653 91.4786 88.4955 91.0507C88.8531 90.8667 89.5279 90.7683 90.3751 90.7426L90.4879 90.8731L90.573 90.9715C92.4632 93.1496 92.4739 96.8402 92.0183 98.7872ZM99.311 92.2189C101.12 93.3336 101.533 95.1971 101.618 96.2091C101.752 97.7795 101.301 99.2194 100.807 99.6537C99.9559 100.396 97.4633 99.6537 95.6668 98.1111C93.4892 96.2519 92.3866 93.4512 92.6867 90.7918C95.2666 90.9929 98.2105 91.5492 99.311 92.2189ZM190.003 137.6C190.203 137.626 190.286 137.699 190.294 137.718C190.303 137.737 190.198 137.855 189.943 137.921C187.416 138.589 184.091 137.881 183.653 137.551C183.631 137.395 183.64 137.237 183.678 137.085C186.697 137.294 189.106 137.487 190.003 137.6ZM189.543 108.227C189.607 108.164 189.683 108.115 189.766 108.083C189.85 108.05 189.939 108.034 190.028 108.036C190.071 108.033 190.113 108.033 190.156 108.036H190.205C190.205 108.062 190.254 108.272 189.888 108.909C189.604 109.383 189.283 109.833 188.928 110.255C189.004 109.309 189.185 108.567 189.543 108.227ZM206.784 101.982C207.08 103.218 207.278 104.656 207.283 107.044C207.283 112.328 205.48 116.828 204.794 117.348C204.581 116.759 205.062 113.843 205.495 111.258C205.967 108.49 206.521 105.167 206.793 101.982H206.784ZM206.359 98.3015C206.174 97.5934 205.991 96.7803 205.822 95.7855C205.524 94.0112 205.447 92.2064 205.595 90.4131C205.631 91.8498 205.785 93.2811 206.056 94.6922C206.272 95.8829 206.376 97.0913 206.367 98.3015H206.359Z" fill="black"/>
</svg>
