<svg width="327" height="352" viewBox="0 0 327 352" fill="none" xmlns="http://www.w3.org/2000/svg">
<path fill-rule="evenodd" clip-rule="evenodd" d="M327 0H0V352H327L291.017 171.833L327 0Z" fill="white"/>
<path d="M154.695 121.993L189.651 87.0367C190.116 86.5707 190.116 85.8154 189.651 85.3494C189.185 84.8835 188.429 84.8835 187.963 85.3494L153.007 120.305L118.052 85.3494C117.578 84.8916 116.822 84.9047 116.364 85.3788C115.918 85.8412 115.918 86.5743 116.364 87.0367L151.32 121.993L116.364 156.948C115.89 157.406 115.877 158.162 116.335 158.636C116.793 159.11 117.548 159.123 118.022 158.665C118.032 158.655 118.042 158.646 118.052 158.636L153.007 123.68L187.963 158.636C188.437 159.094 189.193 159.081 189.651 158.606C190.097 158.144 190.097 157.411 189.651 156.948L154.695 121.993Z" fill="#D9782D"/>
<path d="M119.5 221.36C123.04 221.36 125.44 219.68 127.12 217.37L125.02 216.23C123.88 217.91 121.78 219.14 119.5 219.14C115.12 219.14 111.79 215.75 111.79 211.01C111.79 206.21 115.12 202.88 119.5 202.88C121.78 202.88 123.88 204.08 125.02 205.79L127.09 204.62C125.5 202.34 123.04 200.66 119.5 200.66C113.74 200.66 109.21 204.86 109.21 211.01C109.21 217.16 113.74 221.36 119.5 221.36ZM141.753 221V218.78H132.453V200.99H129.963V221H141.753ZM153.183 221.36C159.093 221.36 163.143 216.92 163.143 211.01C163.143 205.1 159.093 200.66 153.183 200.66C147.273 200.66 143.253 205.1 143.253 211.01C143.253 216.92 147.273 221.36 153.183 221.36ZM153.183 219.14C148.683 219.14 145.833 215.66 145.833 211.01C145.833 206.33 148.683 202.88 153.183 202.88C157.653 202.88 160.563 206.33 160.563 211.01C160.563 215.66 157.653 219.14 153.183 219.14ZM173.482 221.36C178.882 221.36 180.862 218.36 180.862 215.48C180.862 208.01 169.012 210.59 169.012 206.09C169.012 204.2 170.752 202.91 173.122 202.91C175.312 202.91 177.412 203.63 178.912 205.31L180.412 203.48C178.732 201.71 176.362 200.66 173.332 200.66C169.372 200.66 166.432 202.94 166.432 206.24C166.432 213.38 178.282 210.5 178.282 215.66C178.282 217.22 177.142 219.14 173.572 219.14C170.752 219.14 168.592 217.76 167.302 216.26L165.802 218.18C167.452 220.04 170.032 221.36 173.482 221.36ZM197.69 221V218.78H187.07V211.88H197.48V209.66H187.07V203.21H197.69V200.99H184.58V221H197.69ZM133.623 257V236.99H130.053L123.843 252.41L117.603 236.99H114.033V257H116.523V240.17L123.333 257H124.353L131.133 240.17V257H133.623ZM151.401 257V254.78H140.781V247.88H151.191V245.66H140.781V239.21H151.401V236.99H138.291V257H151.401ZM171.931 257V236.99H169.441V252.62L157.921 236.99H155.371V257H157.861V241.04L169.531 257H171.931ZM184.771 257.36C190.201 257.36 192.961 254.18 192.961 249.2V236.99H190.441V249.17C190.441 252.83 188.461 255.14 184.771 255.14C181.081 255.14 179.131 252.83 179.131 249.17V236.99H176.611V249.23C176.611 254.15 179.371 257.36 184.771 257.36Z" fill="#D9782D"/>
</svg>
